<svg id="Layer_1" data-name="Layer 1" xmlns="http://www.w3.org/2000/svg" viewBox="0 0 1920 1080">
  <title>black</title>
  <path d="M1929,342c-74.92-46.29-127.09-46.94-160.86-39-54.11,12.72-72.14,50.09-124.62,49-44.45-.93-49.78-28.11-104.94-49-71.41-27-93.28,6.87-223,0-91.1-4.82-97.8-22.47-154.55-13-73.62,12.29-81.66,45.21-143.75,62-97.76,26.44-126-42.16-259.21-49-133.93-6.88-143.84,60.49-272.54,46-110.19-12.41-132.88-65.16-206.93-46-82.79,21.42-101.16,99.43-163,98C64.11,399.81,24,344.5,0,303V0H1926Z"/>
</svg>
