<svg id="Layer_1" data-name="Layer 1" xmlns="http://www.w3.org/2000/svg" viewBox="0 0 1920 1080">
  <title>black2</title>
  <path d="M1929,200.43c-74.92-27.13-127.09-27.51-160.86-22.86C1714,185,1696,206.93,1643.52,206.29c-44.45-.54-49.78-16.48-104.94-28.72-71.41-15.84-93.28,4-223,0-91.1-2.82-97.8-13.17-154.55-7.61-73.62,7.2-81.66,26.49-143.75,36.33-97.76,15.5-126-24.7-259.21-28.72-133.93-4-143.84,35.46-272.54,27-110.19-7.27-132.88-38.18-206.93-27-82.79,12.56-101.16,58.28-163,57.44C64.11,234.31,24,201.9,0,177.57V0H1926Z"/>
</svg>
