<svg xmlns="http://www.w3.org/2000/svg" viewBox="0 0 1772 1082">
  <defs>
    <style>
      .cls-1 {
        fill: #ff1549;
      }

      .cls-2 {
        fill: #b70071;
      }
    </style>
  </defs>
  <title>hearts_background</title>
  <g id="Layer_4" data-name="Layer 4">
    <path class="cls-1" d="M470.92,259.42c12.29-17,46.05-30.89,73.77-21.4,23.86,8.16,39.93,32.49,41,61.57.35-4.34,4-41.19,36.15-57.2,28.76-14.33,68.84-6.25,83,10.48,13.53,15.92,21.69,61-113.33,212.65C570.33,445.38,432.38,312.79,470.92,259.42Z"/>
    <path class="cls-1" d="M796.69,451.59c13-17.95,48.57-32.57,77.82-22.57,25.17,8.61,42.11,34.28,43.28,65,.38-4.58,4.22-43.45,38.14-60.34,30.34-15.11,72.63-6.59,87.61,11.05C1057.8,461.48,1066.42,509.06,924,669,901.56,647.77,756,507.9,796.69,451.59Z"/>
    <path class="cls-2" d="M894.67,129.61c9.29-11,34.83-20,55.79-13.85a43,43,0,0,1,31,39.85c.27-2.81,3-26.66,27.34-37,21.75-9.27,52.07-4,62.81,6.78,10.23,10.31,16.4,39.5-85.72,137.63C969.86,250,865.52,164.16,894.67,129.61Z"/>
    <path class="cls-1" d="M178,467c9.89-14,37.05-25.47,59.36-17.65,19.2,6.74,32.13,26.81,33,50.8.29-3.58,3.22-34,29.09-47.2,23.15-11.81,55.41-5.15,66.84,8.65C377.19,474.7,383.76,511.91,275.1,637,258,620.38,147,511,178,467Z"/>
    <path class="cls-2" d="M1254.83,449.13c9.59-14.85,35.94-26.95,57.58-18.67,18.62,7.12,31.16,28.36,32,53.73.28-3.79,3.12-35.95,28.22-49.92,22.45-12.5,53.73-5.45,64.82,9.15C1448,457.31,1454.41,496.67,1349,629,1332.43,611.42,1224.75,495.72,1254.83,449.13Z"/>
    <path class="cls-1" d="M1122.05,757.15c10-16.09,37.43-29.2,60-20.23,19.39,7.72,32.45,30.72,33.35,58.21.29-4.11,3.26-39,29.39-54.08,23.38-13.54,56-5.91,67.5,9.9,11,15.06,17.63,57.7-92.12,201C1202.85,933,1090.72,807.61,1122.05,757.15Z"/>
    <path class="cls-2" d="M42.1,88.47C54,72,86.68,58.57,113.52,67.75c23.1,7.91,38.65,31.46,39.72,59.61.35-4.2,3.87-39.88,35-55.38,27.84-13.86,66.65-6,80.4,10.15,13.09,15.42,21,59.08-109.72,205.87C138.34,268.5,4.79,140.14,42.1,88.47Z"/>
    <path class="cls-1" d="M1344.09,88.67c15.51-21.48,58.12-39,93.11-27,30.12,10.31,50.4,41,51.8,77.72.45-5.48,5-52,45.63-72.21,36.31-18.08,86.91-7.88,104.83,13.23,17.07,20.11,27.38,77-143.06,268.43C1469.57,323.41,1295.44,156.05,1344.09,88.67Z"/>
    <path class="cls-2" d="M340.09,706.67c15.51-21.48,58.12-39,93.11-27,30.12,10.31,50.4,41,51.8,77.72.45-5.48,5.05-52,45.63-72.21,36.31-18.08,86.91-7.88,104.83,13.23,17.07,20.11,27.38,77-143.06,268.43C465.57,941.41,291.44,774.05,340.09,706.67Z"/>
    <path class="cls-1" d="M1497.92,706.59c6.48-7.87,24.27-14.29,38.88-9.9,12.58,3.78,21,15,21.64,28.5.18-2,2.1-19.07,19-26.48,15.16-6.63,36.29-2.89,43.78,4.85,7.13,7.37,11.43,28.25-59.74,98.44C1550.32,792.68,1477.6,731.3,1497.92,706.59Z"/>
    <path class="cls-1" d="M773.93,897.1c6.48-7.88,24.28-14.3,38.89-9.91,12.58,3.78,21,15,21.63,28.5.19-2,2.11-19.07,19.06-26.48,15.16-6.63,36.29-2.89,43.78,4.86,7.12,7.37,11.43,28.24-59.75,98.43C826.34,983.18,753.62,921.81,773.93,897.1Z"/>
    <path class="cls-1" d="M59.48,693.37c6.48-7.88,24.28-14.3,38.89-9.91,12.58,3.78,21,15,21.63,28.5.19-2,2.11-19.07,19.06-26.48,15.16-6.63,36.29-2.89,43.77,4.85,7.13,7.38,11.44,28.25-59.74,98.44C111.89,779.45,39.16,718.07,59.48,693.37Z"/>
    <path class="cls-1" d="M50.35,971.83C54.77,966.39,66.9,962,76.86,965c8.58,2.61,14.35,10.39,14.75,19.7.13-1.39,1.44-13.18,13-18.31,10.33-4.58,24.74-2,29.85,3.36,4.86,5.09,7.79,19.52-40.74,68C86.08,1031.33,36.49,988.91,50.35,971.83Z"/>
    <path class="cls-1" d="M191.48,840.37c6.48-7.88,24.28-14.3,38.89-9.91,12.58,3.78,21,15,21.63,28.5.19-2,2.11-19.07,19.06-26.48,15.16-6.63,36.29-2.89,43.77,4.85,7.13,7.38,11.44,28.25-59.74,98.44C243.89,926.45,171.16,865.07,191.48,840.37Z"/>
    <path class="cls-1" d="M1618.48,962.37c6.48-7.88,24.28-14.3,38.89-9.91,12.58,3.78,21,15,21.63,28.5.19-2,2.11-19.07,19.06-26.48,15.16-6.63,36.29-2.89,43.77,4.85,7.13,7.38,11.44,28.25-59.74,98.44C1670.89,1048.45,1598.16,987.07,1618.48,962.37Z"/>
    <path class="cls-1" d="M1338.48,877.37c6.48-7.88,24.28-14.3,38.89-9.91,12.58,3.78,21,15,21.63,28.5.19-2,2.11-19.07,19.06-26.48,15.16-6.63,36.29-2.89,43.77,4.85,7.13,7.38,11.44,28.25-59.74,98.44C1390.89,963.45,1318.16,902.07,1338.48,877.37Z"/>
  </g>
</svg>
